<svg width="162" height="24" viewBox="0 0 162 24" fill="none" xmlns="http://www.w3.org/2000/svg">
<g clip-path="url(#clip0_0_33)">
<mask id="mask0_0_33" style="mask-type:luminance" maskUnits="userSpaceOnUse" x="0" y="0" width="162" height="24">
<path d="M0 0H161.5V24H0V0Z" fill="white"/>
</mask>
<g mask="url(#mask0_0_33)">
<path d="M27.1325 18.9225L22.7025 23.6725C22.6067 23.7757 22.4907 23.858 22.3616 23.9144C22.2326 23.9707 22.0933 23.9999 21.9525 24H0.952516C0.852357 23.9999 0.754387 23.9707 0.670604 23.9158C0.58682 23.8609 0.520859 23.7828 0.480797 23.691C0.440735 23.5992 0.42831 23.4977 0.445045 23.3989C0.461779 23.3002 0.506946 23.2085 0.575016 23.135L5.00002 18.385C5.09583 18.2818 5.21187 18.1995 5.34091 18.1431C5.46995 18.0868 5.60921 18.0576 5.75002 18.0575H26.75C26.8511 18.0554 26.9505 18.0833 27.0358 18.1376C27.1211 18.1918 27.1884 18.2701 27.2293 18.3626C27.2702 18.4551 27.2828 18.5576 27.2656 18.6572C27.2484 18.7568 27.2021 18.8491 27.1325 18.9225ZM22.7025 9.35499C22.6063 9.25228 22.4902 9.17027 22.3613 9.11396C22.2323 9.05765 22.0932 9.02823 21.9525 9.02749H0.952516C0.852357 9.02754 0.754387 9.05681 0.670604 9.11169C0.58682 9.16657 0.520859 9.2447 0.480797 9.3365C0.440735 9.42829 0.42831 9.52978 0.445045 9.62853C0.461779 9.72728 0.506946 9.81901 0.575016 9.89249L5.00002 14.645C5.0962 14.7477 5.21232 14.8297 5.34127 14.886C5.47022 14.9423 5.60931 14.9717 5.75002 14.9725H26.75C26.85 14.9719 26.9476 14.9423 27.031 14.8873C27.1144 14.8322 27.18 14.754 27.2197 14.6623C27.2595 14.5706 27.2717 14.4693 27.2549 14.3708C27.2381 14.2723 27.1929 14.1808 27.125 14.1075L22.7025 9.35499ZM0.952516 5.94249H21.9525C22.0933 5.94237 22.2326 5.91323 22.3616 5.85688C22.4907 5.80053 22.6067 5.71819 22.7025 5.61499L27.1325 0.864988C27.1844 0.810091 27.2236 0.7444 27.2472 0.67261C27.2708 0.60082 27.2782 0.524706 27.269 0.449707C27.2597 0.374708 27.234 0.302677 27.1937 0.238764C27.1534 0.174851 27.0995 0.120634 27.0358 0.0799881C26.9505 0.0257267 26.8511 -0.0021069 26.75 -1.19353e-05H5.75002C5.60921 0.000136275 5.46995 0.0292927 5.34091 0.085639C5.21187 0.141985 5.09583 0.224313 5.00002 0.327488L0.575016 5.07749C0.506946 5.15096 0.461779 5.24269 0.445045 5.34144C0.42831 5.44019 0.440735 5.54168 0.480797 5.63348C0.520859 5.72528 0.58682 5.8034 0.670604 5.85829C0.754387 5.91317 0.852357 5.94243 0.952516 5.94249Z" fill="white"/>
<path d="M52.735 10.15H41.5V6.44998H55.655V2.74998H41.4625C40.9776 2.74728 40.4969 2.84014 40.0478 3.02325C39.5988 3.20637 39.1902 3.47615 38.8455 3.81718C38.5007 4.15822 38.2265 4.56384 38.0386 5.01086C37.8506 5.45788 37.7526 5.93756 37.75 6.42248V10.1725C37.7519 10.6578 37.8495 11.138 38.0372 11.5856C38.2248 12.0332 38.4989 12.4394 38.8437 12.781C39.1885 13.1226 39.5973 13.3928 40.0467 13.5762C40.496 13.7597 40.9772 13.8527 41.4625 13.85H52.7125V17.55H38.0175V21.25H52.735C53.4653 21.2541 54.1805 21.0414 54.7899 20.639C55.3994 20.2365 55.8757 19.6623 56.1587 18.989C56.3468 18.542 56.4449 18.0624 56.4475 17.5775V13.8275C56.4456 13.3421 56.348 12.8619 56.1603 12.4144C55.9726 11.9668 55.6985 11.5606 55.3537 11.219C55.0089 10.8775 54.6001 10.6072 54.1508 10.4238C53.7014 10.2404 53.2203 10.1473 52.735 10.15ZM74.5 2.74998H63.2225C62.4909 2.74415 61.7741 2.95572 61.163 3.35786C60.5518 3.76 60.0739 4.33458 59.7897 5.00873C59.601 5.4563 59.5025 5.93675 59.5 6.42248V17.5775C59.5025 18.0632 59.601 18.5437 59.7897 18.9915C60.0738 19.6657 60.5518 20.2402 61.1629 20.6423C61.7741 21.0444 62.4909 21.2559 63.2225 21.25H74.5C74.9849 21.2527 75.4656 21.1598 75.9147 20.9767C76.3637 20.7936 76.7723 20.5238 77.117 20.1828C77.4618 19.8417 77.736 19.4361 77.9239 18.9891C78.1119 18.5421 78.2099 18.0624 78.2125 17.5775V6.42248C78.21 5.93757 78.1119 5.45791 77.9239 5.01093C77.7359 4.56394 77.4616 4.1584 77.1168 3.81748C76.7721 3.47633 76.3636 3.20646 75.9146 3.02329C75.4656 2.84012 74.9849 2.74725 74.5 2.74998ZM74.4725 17.55H63.25V6.44998H74.4675L74.4725 17.55ZM114 2.74998H103C102.515 2.74728 102.034 2.84014 101.585 3.02325C101.136 3.20637 100.728 3.47615 100.383 3.81718C100.038 4.15822 99.764 4.56384 99.5761 5.01086C99.3881 5.45788 99.2901 5.93756 99.2875 6.42248V21.25H103.037V15.1725H113.988V21.25H117.738V6.42248C117.735 5.93541 117.636 5.45365 117.447 5.00495C117.257 4.55625 116.981 4.14949 116.633 3.80811C116.286 3.46673 115.874 3.19748 115.422 3.01588C114.97 2.83427 114.487 2.74391 114 2.74998ZM113.973 11.4725H103.022V6.44998H113.973V11.4725ZM157.788 2.74998H146.788C146.303 2.74728 145.822 2.84014 145.373 3.02325C144.924 3.20637 144.515 3.47615 144.17 3.81718C143.826 4.15822 143.552 4.56384 143.364 5.01086C143.176 5.45788 143.078 5.93756 143.075 6.42248V21.25H146.825V15.1725H157.75V21.25H161.5V6.42248C161.497 5.93757 161.399 5.45791 161.211 5.01093C161.023 4.56394 160.749 4.1584 160.404 3.81748C159.708 3.12875 158.767 2.74476 157.788 2.74998ZM157.75 11.4725H146.8V6.44998H157.75V11.4725ZM136 17.55H134.5L129.137 4.29998C128.954 3.8428 128.638 3.45097 128.23 3.17479C127.821 2.8986 127.34 2.75067 126.848 2.74998H123.52C123.033 2.74736 122.556 2.88932 122.15 3.1579C121.743 3.42647 121.426 3.80959 121.237 4.25873C121.112 4.55684 121.047 4.87666 121.045 5.19998V21.25H124.795V6.44998H126.295L131.655 19.7C131.842 20.1563 132.16 20.5466 132.57 20.8209C132.98 21.0952 133.462 21.2412 133.955 21.24H137.283C137.606 21.2417 137.926 21.1797 138.226 21.0574C138.525 20.9352 138.798 20.7551 139.027 20.5275C139.492 20.068 139.754 19.443 139.758 18.79V2.74998H136V17.55ZM85.275 2.74998H81.525V17.5775C81.5275 18.0634 81.626 18.5441 81.8148 18.9919C82.0035 19.4397 82.2789 19.8459 82.625 20.187C82.9711 20.5281 83.3811 20.7976 83.8316 20.9801C84.282 21.1625 84.764 21.2542 85.25 21.25H96.5V17.55H85.275V2.74998Z" fill="white"/>
</g>
</g>
<defs>
<clipPath id="clip0_0_33">
<rect width="161.5" height="24" fill="white"/>
</clipPath>
</defs>
</svg>
